<svg xmlns="http://www.w3.org/2000/svg" width="750" viewBox="0 0 750 750" height="750" version="1.0"><defs><clipPath id="a"><path d="M 449 163 L 665 163 L 665 364 L 449 364 Z M 449 163"/></clipPath><clipPath id="b"><path d="M 467.484375 148.171875 L 664.980469 181.269531 L 631.878906 378.765625 L 434.382812 345.667969 Z M 467.484375 148.171875"/></clipPath><clipPath id="c"><path d="M 467.484375 148.171875 L 664.980469 181.269531 L 631.878906 378.765625 L 434.382812 345.667969 Z M 467.484375 148.171875"/></clipPath><clipPath id="d"><path d="M 467.484375 148.171875 L 664.980469 181.269531 L 631.878906 378.765625 L 434.382812 345.667969 Z M 467.484375 148.171875"/></clipPath></defs><g><g><g><path d="M 79.234375 0 L 40.25 0 L 40.25 -112.390625 L 5.03125 -112.390625 L 5.03125 -144.25 L 114.359375 -144.25 L 114.359375 -112.390625 L 79.234375 -112.390625 Z M 79.234375 0" transform="translate(25.46 347.738)"/></g></g></g><g><g><g><path d="M 150.578125 -72.328125 C 150.578125 -48.054688 144.625 -29.601562 132.71875 -16.96875 C 120.8125 -4.34375 103.378906 1.96875 80.421875 1.96875 C 57.785156 1.96875 40.429688 -4.375 28.359375 -17.0625 C 16.296875 -29.757812 10.265625 -48.242188 10.265625 -72.515625 C 10.265625 -96.523438 16.265625 -114.863281 28.265625 -127.53125 C 40.273438 -140.195312 57.722656 -146.53125 80.609375 -146.53125 C 103.566406 -146.53125 120.96875 -140.242188 132.8125 -127.671875 C 144.65625 -115.109375 150.578125 -96.660156 150.578125 -72.328125 Z M 51.3125 -72.328125 C 51.3125 -44.429688 61.015625 -30.484375 80.421875 -30.484375 C 90.285156 -30.484375 97.601562 -33.867188 102.375 -40.640625 C 107.144531 -47.421875 109.53125 -57.984375 109.53125 -72.328125 C 109.53125 -86.734375 107.109375 -97.375 102.265625 -104.25 C 97.429688 -111.125 90.210938 -114.5625 80.609375 -114.5625 C 61.078125 -114.5625 51.3125 -100.484375 51.3125 -72.328125 Z M 51.3125 -72.328125" transform="translate(144.85 347.738)"/></g></g></g><g><g><g><path d="M 120.28125 -98.375 C 120.28125 -82.257812 115.523438 -69.8125 106.015625 -61.03125 C 96.515625 -52.25 83.015625 -47.859375 65.515625 -47.859375 L 54.5625 -47.859375 L 54.5625 0 L 15.59375 0 L 15.59375 -144.25 L 65.515625 -144.25 C 83.734375 -144.25 97.414062 -140.269531 106.5625 -132.3125 C 115.707031 -124.351562 120.28125 -113.039062 120.28125 -98.375 Z M 54.5625 -79.625 L 61.671875 -79.625 C 67.523438 -79.625 72.175781 -81.269531 75.625 -84.5625 C 79.082031 -87.851562 80.8125 -92.390625 80.8125 -98.171875 C 80.8125 -107.910156 75.414062 -112.78125 64.625 -112.78125 L 54.5625 -112.78125 Z M 54.5625 -79.625" transform="translate(305.878 347.738)"/></g></g></g><g fill="#FF914D"><g><g><path d="M 138.046875 -75.1875 C 138.046875 -51.113281 131.414062 -32.5625 118.15625 -19.53125 C 104.90625 -6.507812 86.273438 0 62.265625 0 L 15.59375 0 L 15.59375 -144.25 L 65.515625 -144.25 C 88.671875 -144.25 106.546875 -138.328125 119.140625 -126.484375 C 131.742188 -114.648438 138.046875 -97.550781 138.046875 -75.1875 Z M 97.578125 -73.8125 C 97.578125 -87.03125 94.960938 -96.828125 89.734375 -103.203125 C 84.503906 -109.585938 76.5625 -112.78125 65.90625 -112.78125 L 54.5625 -112.78125 L 54.5625 -31.96875 L 63.25 -31.96875 C 75.09375 -31.96875 83.773438 -35.40625 89.296875 -42.28125 C 94.816406 -49.15625 97.578125 -59.664062 97.578125 -73.8125 Z M 97.578125 -73.8125" transform="translate(287.51 558.74)"/></g></g></g><g fill="#FF914D"><g><g><path d="M 150.578125 -72.328125 C 150.578125 -48.054688 144.625 -29.601562 132.71875 -16.96875 C 120.8125 -4.34375 103.378906 1.96875 80.421875 1.96875 C 57.785156 1.96875 40.429688 -4.375 28.359375 -17.0625 C 16.296875 -29.757812 10.265625 -48.242188 10.265625 -72.515625 C 10.265625 -96.523438 16.265625 -114.863281 28.265625 -127.53125 C 40.273438 -140.195312 57.722656 -146.53125 80.609375 -146.53125 C 103.566406 -146.53125 120.96875 -140.242188 132.8125 -127.671875 C 144.65625 -115.109375 150.578125 -96.660156 150.578125 -72.328125 Z M 51.3125 -72.328125 C 51.3125 -44.429688 61.015625 -30.484375 80.421875 -30.484375 C 90.285156 -30.484375 97.601562 -33.867188 102.375 -40.640625 C 107.144531 -47.421875 109.53125 -57.984375 109.53125 -72.328125 C 109.53125 -86.734375 107.109375 -97.375 102.265625 -104.25 C 97.429688 -111.125 90.210938 -114.5625 80.609375 -114.5625 C 61.078125 -114.5625 51.3125 -100.484375 51.3125 -72.328125 Z M 51.3125 -72.328125" transform="translate(435.813 558.74)"/></g></g></g><g fill="#FF914D"><g><g><path d="M 120.28125 -98.375 C 120.28125 -82.257812 115.523438 -69.8125 106.015625 -61.03125 C 96.515625 -52.25 83.015625 -47.859375 65.515625 -47.859375 L 54.5625 -47.859375 L 54.5625 0 L 15.59375 0 L 15.59375 -144.25 L 65.515625 -144.25 C 83.734375 -144.25 97.414062 -140.269531 106.5625 -132.3125 C 115.707031 -124.351562 120.28125 -113.039062 120.28125 -98.375 Z M 54.5625 -79.625 L 61.671875 -79.625 C 67.523438 -79.625 72.175781 -81.269531 75.625 -84.5625 C 79.082031 -87.851562 80.8125 -92.390625 80.8125 -98.171875 C 80.8125 -107.910156 75.414062 -112.78125 64.625 -112.78125 L 54.5625 -112.78125 Z M 54.5625 -79.625" transform="translate(596.844 558.74)"/></g></g></g><g clip-path="url(#a)"><g clip-path="url(#b)"><g clip-path="url(#c)"><g clip-path="url(#d)"><path fill="#55F" d="M 534.535156 362.453125 L 531.6875 361.972656 C 477.960938 352.96875 441.6875 302.089844 450.699219 248.324219 L 451.175781 245.472656 C 460.179688 191.746094 511.058594 155.472656 564.828125 164.484375 L 664.496094 181.1875 C 664.777344 181.238281 664.9375 181.511719 664.898438 181.75 L 648.195312 281.421875 C 639.183594 335.191406 588.304688 371.460938 534.535156 362.453125 Z M 534.535156 362.453125"/></g></g></g></g></svg>